<?xml version="1.0" encoding="UTF-8"?>
<svg version="1.1" xmlns="http://www.w3.org/2000/svg" width="1024" height="1024">
<path d="M0 0 C337.92 0 675.84 0 1024 0 C1024 337.92 1024 675.84 1024 1024 C686.08 1024 348.16 1024 0 1024 C0 686.08 0 348.16 0 0 Z " fill="#FEFEFE"/>
<path d="M0 0 C18.33 -0.04 36.66 -0.08 55.00 -0.10 C63.51 -0.11 72.03 -0.12 80.54 -0.15 C87.97 -0.17 95.40 -0.18 102.83 -0.18 C106.76 -0.19 110.68 -0.19 114.61 -0.21 C145.82 -0.32 145.82 -0.32 161 2 C162.42 2.20 163.85 2.40 165.28 2.61 C182.32 5.16 198.84 12.48 209.5 26.5 C215.64 35.61 218.17 43.37 218.18 54.25 C218.19 55.07 218.21 55.89 218.22 56.73 C218.25 69.21 213.93 80.30 205.25 89.37 C194.32 99.57 177.24 109 162 109 C162 109.66 162 110.32 162 111 C162.88 111.03 163.76 111.07 164.67 111.11 C186.25 112.29 207.67 120.47 223 136 C223.56 136.54 224.12 137.08 224.70 137.63 C231.01 144.23 234.76 153.58 238 162 C238.59 160.99 239.18 159.99 239.80 158.95 C246.07 148.53 252.89 138.75 261.79 130.36 C265.38 126.01 264.64 120.60 264.5 115.25 C264.50 113.69 264.50 113.69 264.50 112.11 C264.41 104.56 264.04 96.20 258.62 90.5 C253.09 87.34 248.27 86.51 242 86 C242 84.35 242 82.7 242 81 C254.84 76.57 267.76 72.43 280.73 68.38 C282.48 67.83 284.24 67.28 285.99 66.73 C288.50 65.93 291.01 65.15 293.52 64.37 C294.27 64.13 295.02 63.89 295.79 63.65 C296.51 63.43 297.22 63.21 297.95 62.99 C298.57 62.79 299.18 62.60 299.81 62.40 C302 62 302 62 309 62 C309 71.9 309 81.8 309 92 C311.68 90.65 314.36 89.31 317.12 87.93 C326.91 83.20 336.94 79.88 347.35 76.79 C351.37 75.58 355.37 74.32 359.37 73.06 C360.12 72.82 360.87 72.59 361.64 72.35 C366.22 70.91 370.77 69.40 375.30 67.84 C376.38 67.47 377.46 67.11 378.57 66.73 C380.69 66.00 382.79 65.27 384.90 64.53 C385.87 64.20 386.83 63.87 387.83 63.53 C388.68 63.24 389.53 62.94 390.41 62.63 C393.35 61.91 395.98 61.89 399 62 C399.08 62.89 399.17 63.78 399.25 64.70 C399.57 68.02 399.90 71.33 400.22 74.65 C400.36 76.08 400.50 77.52 400.64 78.95 C400.84 81.01 401.04 83.08 401.24 85.14 C401.36 86.38 401.48 87.62 401.61 88.90 C401.90 92.02 401.90 92.02 403 95 C403.74 93.93 403.74 93.93 404.50 92.83 C416.59 75.79 432.11 64.80 453 61 C457.51 60.61 461.97 60.57 466.5 60.62 C467.63 60.61 468.76 60.60 469.93 60.58 C484.60 60.64 500.56 64.86 511.48 75.29 C525.06 90.62 528.13 108.56 528.15 128.35 C528.16 129.82 528.16 129.82 528.17 131.33 C528.18 133.44 528.19 135.55 528.20 137.67 C528.21 141.02 528.23 144.37 528.25 147.72 C528.31 157.24 528.36 166.76 528.40 176.29 C528.42 182.13 528.45 187.97 528.50 193.81 C528.51 196.02 528.52 198.24 528.52 200.46 C528.53 203.56 528.55 206.67 528.58 209.77 C528.58 210.67 528.57 211.58 528.57 212.51 C528.66 219.32 529.42 226.20 534.18 231.37 C540.95 235.28 547.22 236.53 555 237 C555 238.98 555 240.96 555 243 C547.15 243.12 539.30 243.21 531.45 243.27 C528.78 243.29 526.12 243.33 523.45 243.37 C519.61 243.43 515.77 243.46 511.93 243.48 C510.74 243.51 509.55 243.53 508.33 243.56 C501.15 243.56 497.31 242.94 492 238 C490.07 235.67 490.07 235.67 488.68 233.31 C487.98 232.16 487.98 232.16 487.26 230.98 C484.14 223.61 483.70 215.85 483.72 207.93 C483.72 206.51 483.72 206.51 483.71 205.05 C483.70 203.00 483.69 200.96 483.69 198.91 C483.69 195.65 483.67 192.39 483.65 189.14 C483.59 179.88 483.56 170.63 483.54 161.38 C483.52 155.70 483.49 150.02 483.45 144.34 C483.44 142.19 483.44 140.05 483.44 137.90 C483.60 114.65 483.60 114.65 476 93 C475.64 92.36 475.28 91.73 474.91 91.08 C471.87 86.29 468.02 83.54 463 81 C462.30 80.63 461.60 80.26 460.88 79.89 C452.03 77.15 439.20 77.37 430.75 81.12 C429.13 82.03 427.55 82.99 426 84 C425.22 84.43 424.45 84.86 423.66 85.31 C417.33 89.10 412.54 94.23 408 100 C407.47 100.65 406.94 101.30 406.40 101.97 C404.28 106.53 404.59 110.84 404.62 115.81 C404.62 116.90 404.62 117.99 404.61 119.11 C404.60 122.71 404.62 126.32 404.63 129.92 C404.63 132.43 404.63 134.94 404.63 137.44 C404.63 142.70 404.64 147.96 404.66 153.21 C404.68 159.27 404.68 165.33 404.68 171.40 C404.67 177.24 404.68 183.09 404.69 188.93 C404.69 191.41 404.69 193.89 404.69 196.37 C404.69 199.85 404.70 203.32 404.72 206.79 C404.72 207.81 404.72 208.83 404.71 209.88 C404.77 217.21 405.10 225.12 410 231 C416.16 235.56 423.58 236.14 431 237 C431 238.98 431 240.96 431 243 C366.98 243 302.96 243 237 243 C237 241.02 237 239.04 237 237 C238.26 236.85 238.26 236.85 239.56 236.70 C251.24 235.16 251.24 235.16 260.37 228.31 C264.40 220.09 264.23 211.73 264.13 202.74 C264.13 200.15 264.13 197.55 264.14 194.96 C264.14 190.92 264.12 186.88 264.07 182.84 C263.78 154.00 263.78 154.00 273 142 C273.77 140.96 274.54 139.92 275.33 138.85 C277.44 136.11 279.66 133.55 282 131 C282.66 130.25 283.32 129.51 284.00 128.74 C288.71 123.73 293.96 119.57 299.43 115.43 C300.50 114.63 300.50 114.63 301.59 113.80 C306.74 110 306.74 110 309 110 C309.00 110.56 309.00 111.12 309.00 111.70 C309.04 125.45 309.10 139.20 309.18 152.95 C309.22 159.59 309.25 166.24 309.27 172.89 C309.28 179.31 309.32 185.73 309.36 192.15 C309.38 194.59 309.39 197.04 309.39 199.49 C309.39 202.92 309.42 206.35 309.45 209.78 C309.44 210.79 309.44 211.79 309.43 212.83 C309.53 219.28 310.66 224.41 314 230 C315.86 231.98 315.86 231.98 318 233 C318.66 233.37 319.32 233.74 320 234.12 C327.61 237.45 338.25 237.19 346.12 234.75 C350.92 232.81 354.06 230.56 356.75 226.06 C358.53 221.69 359.12 217.74 359.14 213.05 C359.14 212.08 359.15 211.11 359.15 210.11 C359.15 209.06 359.15 208.01 359.16 206.92 C359.16 205.80 359.17 204.69 359.17 203.53 C359.19 199.84 359.19 196.14 359.20 192.45 C359.20 189.88 359.21 187.30 359.22 184.73 C359.22 180.03 359.23 175.32 359.23 170.62 C359.24 163.71 359.26 156.81 359.28 149.90 C359.31 143.90 359.32 137.91 359.32 131.91 C359.32 129.36 359.33 126.82 359.34 124.28 C359.36 120.71 359.36 117.15 359.35 113.59 C359.36 112.54 359.37 111.50 359.38 110.42 C359.34 103.17 358.65 96.32 354 90.5 C350.02 87.52 345.77 87.44 341 88 C332.88 90.20 325.24 93.48 317.68 97.12 C316.69 97.60 315.69 98.08 314.67 98.57 C280.79 115.24 252.93 145.56 239.84 181.13 C238.56 184.92 237.34 188.72 236.30 192.58 C232.11 207.92 222.72 219.97 209 228 C187.92 239.28 165.83 242.17 142.24 242.11 C140.68 242.11 139.13 242.11 137.57 242.11 C133.37 242.11 129.17 242.10 124.97 242.10 C120.58 242.09 116.18 242.09 111.78 242.09 C103.46 242.09 95.15 242.08 86.83 242.07 C77.36 242.06 67.89 242.05 58.41 242.05 C38.94 242.03 19.47 242.02 0 242 C0 240.35 0 238.7 0 237 C0.90 236.91 1.81 236.82 2.74 236.73 C13.72 235.54 13.72 235.54 23 230 C27.38 223.25 28.14 216.09 28.14 208.20 C28.14 207.43 28.14 206.65 28.14 205.85 C28.15 203.24 28.15 200.64 28.16 198.04 C28.16 196.17 28.17 194.30 28.17 192.43 C28.18 187.36 28.19 182.29 28.20 177.22 C28.20 174.05 28.20 170.87 28.21 167.70 C28.22 157.78 28.23 147.86 28.23 137.93 C28.24 126.48 28.26 115.04 28.28 103.59 C28.31 94.73 28.32 85.88 28.32 77.02 C28.32 71.74 28.32 66.45 28.34 61.17 C28.36 56.19 28.36 51.22 28.35 46.24 C28.35 44.42 28.36 42.60 28.37 40.78 C28.56 26.34 28.56 26.34 23.18 13.12 C18.55 8.62 13.37 7.47 7.12 6.81 C6.43 6.73 5.74 6.64 5.03 6.56 C3.36 6.36 1.68 6.18 0 6 Z" fill="#020202" transform="translate(146,391)"/>
<path d="M0 0 C1.13 -0.01 2.26 -0.02 3.43 -0.03 C18.10 0.01 34.06 4.24 44.98 14.66 C58.56 29.99 61.63 47.94 61.65 67.73 C61.66 68.71 61.66 69.69 61.67 70.70 C61.68 72.81 61.69 74.93 61.69 77.04 C61.71 80.39 61.73 83.74 61.75 87.10 C61.81 96.62 61.86 106.14 61.90 115.66 C61.92 121.50 61.95 127.34 62.00 133.18 C62.01 135.40 62.02 137.62 62.02 139.83 C62.03 142.94 62.05 146.04 62.08 149.14 C62.08 150.05 62.07 150.96 62.07 151.89 C62.16 158.70 62.92 165.57 67.68 170.75 C74.45 174.66 80.72 175.91 88.5 176.37 C88.5 178.35 88.5 180.33 88.5 182.37 C80.65 182.50 72.80 182.58 64.95 182.64 C62.28 182.67 59.62 182.70 56.95 182.75 C53.11 182.81 49.27 182.84 45.43 182.86 C44.24 182.88 43.05 182.91 41.83 182.94 C34.65 182.94 30.81 182.31 25.5 177.37 C23.57 175.05 23.57 175.05 22.18 172.68 C21.71 171.92 21.24 171.15 20.76 170.36 C17.64 162.98 17.20 155.22 17.22 147.31 C17.22 146.36 17.21 145.41 17.21 144.43 C17.20 142.38 17.19 140.33 17.19 138.28 C17.19 135.03 17.17 131.77 17.15 128.51 C17.09 119.26 17.06 110.01 17.04 100.75 C17.02 95.07 16.99 89.40 16.95 83.72 C16.94 81.57 16.94 79.42 16.94 77.28 C17.10 54.03 17.10 54.03 9.5 32.37 C9.14 31.74 8.78 31.10 8.41 30.45 C5.37 25.66 1.52 22.91 -3.5 20.37 C-4.54 19.82 -4.54 19.82 -5.61 19.26 C-14.46 16.53 -27.29 16.75 -35.75 20.5 C-37.36 21.41 -38.94 22.36 -40.5 23.37 C-41.27 23.80 -42.04 24.24 -42.83 24.69 C-49.16 28.48 -53.95 33.61 -58.5 39.37 C-59.02 40.02 -59.55 40.68 -60.09 41.35 C-62.21 45.90 -61.90 50.22 -61.87 55.18 C-61.87 56.27 -61.87 57.36 -61.88 58.49 C-61.89 62.09 -61.87 65.69 -61.86 69.30 C-61.86 71.80 -61.86 74.31 -61.86 76.82 C-61.86 82.07 -61.85 87.33 -61.83 92.59 C-61.81 98.65 -61.81 104.71 -61.81 110.77 C-61.82 116.62 -61.81 122.46 -61.80 128.31 C-61.80 130.79 -61.80 133.27 -61.80 135.75 C-61.80 139.22 -61.79 142.70 -61.77 146.17 C-61.77 147.19 -61.77 148.21 -61.78 149.26 C-61.72 156.59 -61.39 164.50 -56.5 170.37 C-50.33 174.93 -42.91 175.51 -35.5 176.37 C-35.5 178.35 -35.5 180.33 -35.5 182.37 C-99.52 182.37 -163.54 182.37 -229.5 182.37 C-229.5 180.39 -229.5 178.41 -229.5 176.37 C-228.65 176.27 -227.80 176.17 -226.93 176.07 C-215.25 174.54 -215.25 174.54 -206.12 167.68 C-202.09 159.46 -202.26 151.11 -202.36 142.11 C-202.36 139.52 -202.36 136.93 -202.35 134.34 C-202.35 130.30 -202.37 126.26 -202.42 122.21 C-202.71 93.37 -202.71 93.37 -193.5 81.37 C-192.34 79.81 -192.34 79.81 -191.16 78.22 C-189.05 75.48 -186.83 72.92 -184.5 70.37 C-183.83 69.63 -183.17 68.88 -182.49 68.12 C-177.78 63.11 -172.53 58.94 -167.06 54.81 C-165.99 54.00 -165.99 54.00 -164.90 53.18 C-159.75 49.37 -159.75 49.37 -157.5 49.37 C-157.49 50.22 -157.49 50.22 -157.49 51.08 C-157.45 64.83 -157.39 78.57 -157.31 92.32 C-157.27 98.97 -157.24 105.62 -157.22 112.27 C-157.21 118.69 -157.17 125.10 -157.13 131.52 C-157.11 133.97 -157.10 136.42 -157.10 138.86 C-157.10 142.29 -157.07 145.73 -157.04 149.16 C-157.05 150.16 -157.05 151.17 -157.06 152.21 C-156.96 158.66 -155.83 163.78 -152.5 169.37 C-150.63 171.35 -150.63 171.35 -148.5 172.37 C-147.51 172.93 -147.51 172.93 -146.5 173.5 C-138.88 176.83 -128.24 176.56 -120.37 174.12 C-115.57 172.18 -112.43 169.93 -109.75 165.43 C-107.96 161.07 -107.37 157.12 -107.35 152.43 C-107.35 151.46 -107.34 150.49 -107.34 149.49 C-107.34 148.43 -107.34 147.38 -107.33 146.30 C-107.33 145.18 -107.32 144.06 -107.32 142.91 C-107.30 139.21 -107.30 135.52 -107.29 131.82 C-107.29 129.25 -107.28 126.68 -107.27 124.11 C-107.27 119.40 -107.26 114.70 -107.26 109.99 C-107.25 103.09 -107.23 96.18 -107.21 89.28 C-107.18 83.28 -107.17 77.28 -107.17 71.28 C-107.17 68.74 -107.16 66.20 -107.15 63.65 C-107.13 60.09 -107.13 56.52 -107.14 52.96 C-107.13 51.92 -107.12 50.87 -107.11 49.80 C-107.15 42.54 -107.84 35.69 -112.5 29.87 C-116.47 26.89 -120.72 26.81 -125.5 27.37 C-133.61 29.57 -141.25 32.85 -148.81 36.5 C-149.80 36.97 -150.80 37.45 -151.82 37.95 C-170.60 47.18 -186.64 59.91 -200.15 75.90 C-200.59 76.39 -201.04 76.87 -201.5 77.37 C-201.83 77.37 -202.16 77.37 -202.5 77.37 C-202.83 75.06 -203.16 72.75 -203.5 70.37 C-204.98 71.36 -204.98 71.36 -206.5 72.37 C-205.34 69.90 -204.45 68.32 -202.5 66.37 C-202.03 62.56 -202.17 58.71 -202.18 54.87 C-202.17 53.82 -202.15 52.77 -202.13 51.68 C-202.13 44.02 -202.35 35.68 -207.87 29.87 C-213.40 26.71 -218.22 25.89 -224.5 25.37 C-224.5 23.72 -224.5 22.07 -224.5 20.37 C-211.65 15.95 -198.73 11.80 -185.76 7.76 C-184.01 7.21 -182.25 6.66 -180.50 6.10 C-177.99 5.31 -175.48 4.53 -172.97 3.75 C-172.22 3.51 -171.47 3.27 -170.70 3.02 C-169.98 2.80 -169.27 2.58 -168.54 2.36 C-167.62 2.07 -167.62 2.07 -166.68 1.78 C-164.5 1.37 -164.5 1.37 -157.5 1.37 C-157.5 11.27 -157.5 21.17 -157.5 31.37 C-154.81 30.03 -152.13 28.69 -149.37 27.31 C-139.58 22.57 -129.55 19.26 -119.14 16.16 C-115.12 14.96 -111.12 13.70 -107.12 12.43 C-106.37 12.20 -105.62 11.96 -104.85 11.72 C-100.27 10.28 -95.72 8.77 -91.19 7.22 C-89.57 6.67 -89.57 6.67 -87.92 6.10 C-85.80 5.38 -83.70 4.65 -81.59 3.91 C-80.62 3.58 -79.66 3.25 -78.66 2.91 C-77.81 2.61 -76.96 2.32 -76.08 2.01 C-73.14 1.28 -70.51 1.26 -67.5 1.37 C-67.41 2.26 -67.32 3.16 -67.24 4.08 C-66.92 7.39 -66.59 10.71 -66.27 14.02 C-66.13 15.46 -65.99 16.89 -65.85 18.33 C-65.65 20.39 -65.45 22.45 -65.25 24.51 C-65.07 26.38 -65.07 26.38 -64.88 28.28 C-64.59 31.40 -64.59 31.40 -63.5 34.37 C-63.00 33.66 -62.50 32.94 -61.99 32.21 C-46.93 10.97 -26.28 -0.26 0 0 Z" fill="#F39425" transform="translate(612.5,451.62)"/>
<path d="M0 0 C1.99 0.00 3.98 -0.02 5.98 -0.04 C27.78 -0.05 48.41 7.04 64.50 22.04 C74.92 32.87 81.53 45.45 85.13 59.94 C85.29 60.58 85.46 61.22 85.62 61.89 C87.11 68.60 86.69 74.05 86.69 81.31 C42.14 81.31 -2.40 81.31 -48.30 81.31 C-42.71 109.24 -37.44 132.78 -13.33 149.49 C3.27 159.48 23.13 162.37 42.13 158.31 C59.10 153.01 73.69 142.86 82.85 127.35 C83.52 126.03 84.12 124.67 84.69 123.31 C86.34 123.97 87.99 124.63 89.69 125.31 C89.14 130.26 87.54 134.17 85.19 138.50 C84.83 139.15 84.48 139.81 84.11 140.49 C80.64 146.70 76.49 152.06 71.69 157.31 C70.93 158.16 70.17 159.01 69.39 159.89 C53.77 176.54 31.23 185.47 8.57 186.69 C3.93 186.81 -0.67 186.63 -5.30 186.31 C-6.58 186.23 -7.86 186.14 -9.18 186.06 C-33.17 183.64 -54.29 172.18 -70.30 154.31 C-88.22 132.28 -91.93 105.83 -90.30 78.31 C-88.06 58.41 -79.17 40.59 -65.30 26.31 C-64.68 25.61 -64.05 24.91 -63.41 24.19 C-47.36 6.83 -22.88 -0.07 0 0 Z" fill="#258F4F" transform="translate(787.3,451.6)"/>
<path d="M0 0 C12.97 9.38 20.54 22.46 23.12 38.23 C24.91 58.02 22.97 77.27 9.81 93.23 C-1.44 105.02 -16.96 109.78 -32.92 110.60 C-36.62 110.65 -40.31 110.65 -44.01 110.62 C-45.36 110.61 -46.71 110.61 -48.06 110.61 C-51.57 110.60 -55.08 110.58 -58.59 110.56 C-62.19 110.54 -65.79 110.53 -69.39 110.52 C-76.43 110.50 -83.46 110.46 -90.49 110.42 C-90.57 104.18 -90.62 97.94 -90.66 91.70 C-90.67 89.59 -90.69 87.47 -90.72 85.36 C-90.91 69.03 -90.17 53.58 -84.68 38.05 C-84.29 36.92 -84.29 36.92 -83.89 35.78 C-78.05 19.40 -67.90 5.15 -51.87 -2.44 C-35.68 -9.56 -15.05 -9.49 0 0 Z" fill="#FDFDFD" transform="translate(311.4,515.5)"/>
<path d="M0 0 C69.35 0 69.35 0 83.11 12.86 C94.79 26.09 96.04 41.60 95.21 58.46 C94.29 69.43 89.38 80.14 81.37 87.75 C71.80 95.32 60.08 98.87 48.62 102.56 C39.14 105.71 30.32 109.63 22.62 116.12 C21.85 116.76 21.08 117.40 20.28 118.07 C19.53 118.70 18.77 119.34 18 120 C17.17 120.60 16.35 121.21 15.5 121.83 C12.56 124.37 10.50 127.23 8.37 130.43 C7.99 130.99 7.61 131.55 7.21 132.13 C5.49 134.68 3.84 137.25 2.28 139.91 C1.86 140.59 1.43 141.28 1 142 C0.67 142 0.34 142 0 142 Z" fill="#FCFCFC" transform="translate(221,399)"/>
<path d="M0 0 C0.00 0.84 0.00 0.84 0.00 1.70 C0.04 15.45 0.10 29.20 0.18 42.95 C0.22 49.59 0.25 56.24 0.27 62.89 C0.28 69.31 0.32 75.73 0.36 82.15 C0.38 84.59 0.39 87.04 0.39 89.49 C0.39 92.92 0.42 96.35 0.45 99.78 C0.44 100.79 0.44 101.79 0.43 102.83 C0.53 109.19 1.49 114.57 5 120 C10.46 125.03 16.79 126.11 24 127 C24 128.65 24 130.3 24 132 C-7.35 132 -38.7 132 -71 132 C-71 130.35 -71 128.7 -71 127 C-70.22 126.90 -69.45 126.80 -68.65 126.70 C-60.75 125.56 -54.07 124.47 -48.62 118.31 C-44.59 110.09 -44.76 101.73 -44.86 92.74 C-44.86 90.15 -44.86 87.55 -44.85 84.96 C-44.85 80.92 -44.87 76.88 -44.92 72.84 C-45.21 44.00 -45.21 44.00 -36 32 C-35.22 30.96 -34.45 29.92 -33.66 28.85 C-31.55 26.11 -29.33 23.55 -27 21 C-26.33 20.25 -25.67 19.51 -24.99 18.74 C-20.28 13.73 -15.03 9.57 -9.56 5.43 C-8.85 4.90 -8.14 4.36 -7.40 3.80 C-2.25 0 -2.25 0 0 0 Z" fill="#C12B2B" transform="translate(455,501)"/>
<path d="M0 0 C13.40 11.57 18.61 30.11 20.58 47.13 C20.83 50.93 20.81 54.75 20.81 58.56 C-9.21 58.56 -39.24 58.56 -70.18 58.56 C-70.18 50.18 -69.95 43.49 -68.06 35.56 C-67.72 34.12 -67.72 34.12 -67.38 32.66 C-63.85 18.46 -57.10 5.53 -44.28 -2.25 C-29.91 -10.32 -13.48 -9.69 0 0 Z" fill="#FBFDFC" transform="translate(809.1,467.4)"/>
<path d="M0 0 C2.85 33.83 2.85 33.83 -1.58 41.87 C-5.59 45.95 -10.45 48.06 -15.74 50.05 C-19.09 51.45 -21.37 53.38 -24.12 55.75 C-25.38 56.82 -25.38 56.82 -26.67 57.91 C-32.44 63.08 -37.65 68.61 -42.65 74.53 C-43.09 75.01 -43.54 75.50 -44 76 C-44.33 76 -44.66 76 -45 76 C-45.33 73.69 -45.66 71.38 -46 69 C-47.48 69.99 -47.48 69.99 -49 71 C-47.84 68.53 -46.95 66.95 -45 65 C-44.53 61.18 -44.67 57.33 -44.68 53.5 C-44.67 52.44 -44.65 51.39 -44.63 50.31 C-44.63 42.64 -44.85 34.31 -50.37 28.5 C-55.90 25.34 -60.72 24.51 -67 24 C-67 22.35 -67 20.7 -67 19 C-54.15 14.57 -41.23 10.43 -28.26 6.38 C-26.51 5.83 -24.75 5.28 -23.00 4.73 C-20.49 3.93 -17.98 3.15 -15.47 2.37 C-14.72 2.13 -13.97 1.89 -13.20 1.65 C-8.62 0.25 -4.78 -0.23 0 0 Z" fill="#C02B2B" transform="translate(455,453)"/>
<path d="M0 0 C6.02 3.58 10.21 8.23 12.37 14.93 C13.40 23.81 12.91 31.67 7.37 38.93 C1.18 45.04 -5.26 47.22 -13.93 47.37 C-21.86 47.25 -26.53 45.57 -32.39 40.36 C-37.46 35.06 -39.63 28.75 -40.12 21.5 C-39.85 15.03 -37.00 9.54 -32.68 4.82 C-23.88 -3.21 -10.98 -5.08 0 0 Z" fill="#C12B2A" transform="translate(444.6,389)"/>
<path d="M0 0 C44.55 0 89.1 0 135 0 C135 0.66 135 1.32 135 2 C91.11 2 47.22 2 2 2 C2 4.31 2 6.62 2 9 C1.67 9 1.34 9 1 9 C0.67 6.03 0.34 3.06 0 0 Z" fill="#C3E6D2" transform="translate(739,533)"/>
<path d="M0 0 C4.16 3.32 5.17 6.91 6 12 C6.27 15.81 6.27 19.61 6.25 23.44 C6.26 24.56 6.26 25.68 6.26 26.84 C6.27 30.53 6.27 34.22 6.26 37.91 C6.26 40.48 6.26 43.05 6.27 45.62 C6.27 51.01 6.27 56.39 6.26 61.77 C6.24 67.99 6.25 74.20 6.26 80.41 C6.27 86.40 6.27 92.40 6.26 98.39 C6.26 100.93 6.26 103.47 6.27 106.02 C6.27 109.57 6.26 113.12 6.25 116.68 C6.26 117.73 6.26 118.77 6.27 119.85 C6.23 125.30 5.81 129.85 4 135 C3.67 135 3.34 135 3 135 C3.24 133.10 3.24 133.10 3.49 131.17 C4.08 125.82 4.13 120.53 4.11 115.15 C4.11 114.11 4.11 113.06 4.11 111.98 C4.11 108.56 4.10 105.13 4.09 101.71 C4.09 99.32 4.09 96.94 4.09 94.55 C4.08 88.29 4.07 82.03 4.06 75.78 C4.05 69.38 4.05 62.99 4.04 56.59 C4.03 44.06 4.02 31.53 4 19 C3.67 19 3.34 19 3 19 C2.92 17.57 2.92 17.57 2.85 16.11 C2.77 14.85 2.70 13.60 2.62 12.31 C2.55 11.07 2.48 9.82 2.41 8.55 C2.03 5.30 1.38 2.93 0 0 Z" fill="#FEE6BD" transform="translate(500,481)"/>
<path d="M0 0 C0.66 0 1.32 0 2 0 C6.57 13.00 6.58 25.52 6.57 39.17 C6.58 41.48 6.60 43.79 6.61 46.10 C6.65 52.12 6.67 58.15 6.67 64.18 C6.69 73.87 6.75 83.56 6.80 93.26 C6.82 96.64 6.83 100.03 6.83 103.41 C6.84 105.46 6.85 107.52 6.85 109.57 C6.85 110.52 6.85 111.46 6.85 112.44 C6.45 116.54 6.45 116.54 8 120 C8.07 121.68 8.08 123.37 8.06 125.06 C8.05 125.98 8.04 126.90 8.03 127.84 C8.02 128.55 8.01 129.26 8 130 C8.66 130.33 9.32 130.66 10 131 C9.01 131.99 9.01 131.99 8 133 C4.39 122.69 4.57 112.49 4.58 101.70 C4.59 98.45 4.57 95.20 4.56 91.95 C4.52 85.05 4.51 78.15 4.5 71.25 C4.48 63.25 4.46 55.26 4.41 47.26 C4.40 44.09 4.41 40.92 4.41 37.75 C4.38 26.45 3.56 16.02 1 5 C0.66 3.33 0.32 1.66 0 0 Z" fill="#E09032" transform="translate(625,488)"/>
<path d="M0 0 C6.93 0.49 6.93 0.49 14 1 C14 2.98 14 4.96 14 7 C6.75 7.06 -0.49 7.12 -7.74 7.15 C-11.11 7.17 -14.48 7.19 -17.84 7.22 C-21.71 7.26 -25.58 7.27 -29.45 7.29 C-31.27 7.31 -31.27 7.31 -33.12 7.33 C-34.24 7.34 -35.36 7.34 -36.51 7.34 C-37.50 7.34 -38.49 7.35 -39.51 7.36 C-42 7 -42 7 -45 4 C-26.19 4.33 -7.38 4.66 12 5 C12 4.01 12 3.02 12 2 C8.37 2 4.74 2 1 2 C0.50 1.01 0.50 1.01 0 0 Z" fill="#EAA654" transform="translate(687,627)"/>
<path d="M0 0 C0.33 2.83 0.67 5.66 1 8.5 C1.09 9.29 1.19 10.08 1.28 10.89 C1.87 15.97 2.09 20.89 2 26 C1.34 26 0.68 26 0 26 C-0.06 25.16 -0.12 24.33 -0.18 23.48 C-0.26 22.39 -0.35 21.30 -0.43 20.18 C-0.51 19.10 -0.59 18.02 -0.68 16.91 C-0.90 13.94 -0.90 13.94 -2 11 C-2.06 9.43 -2.08 7.87 -2.06 6.31 C-2.05 5.50 -2.04 4.69 -2.03 3.86 C-2.02 3.24 -2.01 2.63 -2 2 C-2.81 2.22 -3.63 2.45 -4.48 2.69 C-5.56 2.97 -6.63 3.26 -7.75 3.56 C-8.81 3.85 -9.88 4.14 -10.98 4.44 C-13.84 4.97 -15.31 4.98 -18 4 C-16.12 3.32 -14.25 2.65 -12.37 2 C-11.33 1.62 -10.28 1.25 -9.21 0.87 C-5.98 -0.00 -3.32 -0.15 0 0 Z" fill="#E5A050" transform="translate(545,453)"/>
<path d="M0 0 C0.66 0.33 1.32 0.66 2 1 C-6.25 9.25 -14.5 17.5 -23 26 C-23 22.38 -22.40 21.99 -20 19.45 C-19.03 18.43 -19.03 18.43 -18.05 17.39 C-17.37 16.68 -16.69 15.97 -16 15.25 C-15.35 14.55 -14.70 13.86 -14.03 13.15 C-9.59 8.47 -4.92 4.16 0 0 Z" fill="#FAE2E2" transform="translate(434,505)"/>
<path d="M0 0 C0 0.66 0 1.32 0 2 C-0.99 2.33 -1.98 2.66 -3 3 C-4.68 4.65 -4.68 4.65 -6.31 6.68 C-9.39 10.31 -12.50 13.75 -16 17 C-16.66 17 -17.32 17 -18 17 C-18.33 18.32 -18.66 19.64 -19 21 C-19.66 21 -20.32 21 -21 21 C-19.55 16.43 -16.96 13.36 -13.75 9.93 C-13.05 9.16 -13.05 9.16 -12.33 8.37 C-4.59 0 -4.59 0 0 0 Z" fill="#FEF3D9" transform="translate(572,475)"/>
<path d="M0 0 C1.18 -0.01 2.37 -0.02 3.60 -0.03 C10.31 -0.04 16.26 0.42 22.75 2.18 C22.75 2.51 22.75 2.84 22.75 3.18 C19.45 3.18 16.15 3.18 12.75 3.18 C12.75 2.52 12.75 1.86 12.75 1.18 C8.95 1.32 5.16 1.47 1.37 1.62 C0.29 1.66 -0.78 1.70 -1.89 1.74 C-2.92 1.78 -3.96 1.82 -5.02 1.87 C-6.45 1.92 -6.45 1.92 -7.91 1.98 C-10.27 2.04 -10.27 2.04 -12.25 3.18 C-13.79 3.25 -15.33 3.27 -16.87 3.25 C-18.10 3.23 -18.10 3.23 -19.35 3.22 C-20.29 3.20 -20.29 3.20 -21.25 3.18 C-14.91 -1.03 -7.34 0.00 0 0 Z" fill="#E3963D" transform="translate(612.2,451.8)"/>
<path d="M0 0 C1 3 1 3 0.08 5.15 C-1.36 8.94 -1.35 12.57 -1.41 16.58 C-1.43 17.39 -1.45 18.21 -1.47 19.04 C-1.53 21.63 -1.57 24.22 -1.62 26.81 C-1.66 28.57 -1.70 30.33 -1.74 32.09 C-1.83 36.39 -1.92 40.69 -2 45 C-2.33 45 -2.66 45 -3 45 C-3.24 39.87 -3.45 34.75 -3.64 29.63 C-3.71 27.89 -3.79 26.15 -3.87 24.41 C-3.99 21.89 -4.08 19.38 -4.17 16.87 C-4.21 16.10 -4.25 15.33 -4.30 14.54 C-4.46 8.67 -2.93 5.07 0 0 Z" fill="#BC2C2C" transform="translate(415,540)"/>
<path d="M0 0 C1 3 1 3 -1.36 4.47 C-1.90 4.97 -2.44 5.48 -3 6 C-7.29 12.82 -7.75 19.02 -8 27 C-10.73 22.89 -10.72 19.81 -10 15 C-7.83 8.95 -4.86 4.17 0 0 Z" fill="#B04040" transform="translate(415,391)"/>
<path d="M0 0 C0.33 0 0.66 0 1 0 C2.51 6.46 3.21 12.35 3 19 C3.99 19.33 4.98 19.66 6 20 C4.68 21.32 3.36 22.64 2 24 C1.66 21.50 1.32 19.00 1 16.5 C0.90 15.80 0.80 15.10 0.71 14.39 C0.08 9.55 -0.08 4.87 0 0 Z" fill="#FFF4D7" transform="translate(546,463)"/>
<path d="M0 0 C0 0.66 0 1.32 0 2 C-6.04 4.27 -11.56 5.48 -18 6 C-14.81 3.87 -12.09 2.97 -8.43 1.87 C-7.28 1.52 -6.12 1.16 -4.93 0.80 C-2 0 -2 0 0 0 Z" fill="#B64544" transform="translate(418,463)"/>
<path d="M0 0 C2.80 3.14 3.35 5.06 3.18 9.25 C3.16 10.14 3.13 11.03 3.10 11.95 C3.07 12.62 3.03 13.30 3 14 C3.66 14.33 4.32 14.66 5 15 C4.34 15.66 3.68 16.32 3 17 C2.49 15.10 1.99 13.20 1.5 11.31 C1.22 10.25 0.94 9.20 0.65 8.11 C0.06 5.28 -0.12 2.87 0 0 Z" fill="#E79D47" transform="translate(630,604)"/>
<path d="M0 0 C0.33 0.99 0.66 1.98 1 3 C-0.29 5.22 -0.29 5.22 -2.18 7.62 C-2.79 8.42 -3.41 9.21 -4.04 10.03 C-6.09 12.09 -7.16 12.63 -10 13 C-9.61 12.56 -9.22 12.12 -8.82 11.67 C-5.56 7.94 -2.65 4.19 0 0 Z" fill="#439362" transform="translate(868,582)"/>
<path d="M0 0 C0.33 0 0.66 0 1 0 C1.33 4.62 1.66 9.24 2 14 C1.01 14.66 0.02 15.32 -1 16 C-1.11 10.54 -0.91 5.38 0 0 Z" fill="#B1302F" transform="translate(412,512)"/>
<path d="M0 0 C0 0.33 0 0.66 0 1 C-5.48 2.86 -10.22 3.23 -16 3 C-10.85 -0.42 -5.99 -0.10 0 0 Z" fill="#E79F4B" transform="translate(607,452)"/>
<path d="M0 0 C0.33 0 0.66 0 1 0 C1.99 4.62 2.98 9.24 4 14 C0 10 0 10 -0.39 7.42 C-0.34 6.54 -0.29 5.65 -0.25 4.75 C-0.21 3.85 -0.17 2.96 -0.14 2.04 C-0.09 1.37 -0.04 0.69 0 0 Z" fill="#E69C47" transform="translate(673,606)"/>
<path d="M0 0 C1.39 4.17 -0.17 6.13 -2 10 C-2.66 10 -3.32 10 -4 10 C-2.89 6.51 -1.73 3.22 0 0 Z" fill="#B14140" transform="translate(415,540)"/>
<path d="M0 0 C0.68 1.81 0.68 1.81 1 4 C-0.25 5.75 -0.25 5.75 -2 7 C-2.99 7 -3.98 7 -5 7 C-5 5.35 -5 3.7 -5 2 C-4.01 3.48 -4.01 3.48 -3 5 C-2.01 3.35 -1.02 1.7 0 0 Z" fill="#EEA754" transform="translate(552,481)"/>
</svg>